<?xml version="1.0" standalone="no"?>
<!DOCTYPE svg PUBLIC "-//W3C//DTD SVG 20010904//EN"
 "http://www.w3.org/TR/2001/REC-SVG-20010904/DTD/svg10.dtd">
<svg version="1.0" xmlns="http://www.w3.org/2000/svg"
 width="500.000000pt" height="500.000000pt" viewBox="0 0 500.000000 500.000000"
 preserveAspectRatio="xMidYMid meet">

<g transform="translate(0.000000,500.000000) scale(0.100000,-0.100000)"
fill="#000000" stroke="none">
<path d="M4795 4215 c-28 -52 -34 -56 -95 -77 l-65 -21 35 -15 c19 -8 45 -18
57 -23 17 -6 23 -19 28 -64 8 -64 14 -62 54 12 24 42 32 49 90 68 l64 21 -54
21 c-49 18 -55 23 -63 59 -17 78 -19 79 -51 19z"/>
<path d="M3810 4170 c-480 -66 -1073 -314 -1657 -692 -51 -33 -93 -61 -93 -63
0 -1 100 48 223 110 264 135 463 225 647 293 701 260 1259 302 1452 109 60
-60 82 -119 81 -217 -3 -253 -214 -594 -612 -990 -201 -201 -499 -460 -527
-460 -5 0 -25 30 -44 66 l-35 66 -45 -7 c-36 -5 -468 -110 -542 -131 -16 -5
-18 -27 -20 -237 l-3 -232 -65 -39 c-212 -128 -612 -316 -885 -415 -280 -103
-471 -149 -707 -172 -316 -32 -536 63 -593 254 -24 80 -15 287 12 287 3 0 44
-35 91 -77 l85 -78 -6 35 c-3 19 -9 69 -12 110 -3 41 -8 84 -10 95 -3 16 19
34 121 95 l124 75 -129 3 -128 3 -7 37 c-3 20 -6 64 -7 97 -2 120 -7 119 -80
-12 l-66 -118 -133 -5 -133 -5 86 -74 c48 -41 87 -76 87 -78 0 -2 -30 -55 -66
-119 -36 -64 -64 -117 -62 -119 2 -2 48 25 103 60 55 35 101 62 103 61 2 -2
-4 -38 -12 -80 -19 -92 -20 -145 -2 -211 38 -142 131 -232 301 -290 82 -27
259 -47 365 -40 418 27 886 168 1406 426 122 60 224 109 227 109 2 0 2 -11 0
-24 -5 -22 -1 -25 28 -28 19 -2 99 13 179 33 l145 35 5 103 c5 98 6 103 32
119 15 9 28 14 30 12 2 -3 22 -41 45 -85 l42 -80 44 -3 c35 -2 308 57 384 83
8 3 -21 63 -77 165 -50 88 -90 162 -90 164 0 2 30 28 68 57 184 146 322 268
477 423 572 573 790 1082 595 1386 -61 95 -165 161 -307 196 -79 19 -333 27
-433 14z m-773 -2030 c2 -73 0 -92 -15 -106 -16 -17 -17 -12 -20 86 -2 75 1
106 10 111 20 12 22 3 25 -91z"/>
<path d="M3010 3285 c-8 -2 -81 -11 -162 -21 l-148 -17 0 -341 c0 -201 -4
-336 -9 -330 -5 5 -36 61 -70 125 l-61 115 30 29 c41 39 64 120 57 197 -14
152 -98 183 -398 143 -63 -9 -161 -22 -219 -30 -58 -7 -211 -28 -340 -45 -129
-17 -295 -40 -369 -50 -74 -11 -140 -20 -147 -20 -10 0 -14 -13 -14 -39 0 -38
1 -38 45 -44 24 -4 58 -4 75 -1 l30 7 0 -291 0 -290 38 -4 c20 -3 98 3 172 13
74 10 138 19 143 19 4 0 7 135 7 299 l0 300 48 6 c26 4 58 7 72 8 l25 2 3
-292 2 -293 34 0 c33 0 249 26 293 36 l23 4 2 298 c3 281 4 297 21 297 18 0
19 -11 18 -162 l-2 -162 61 -120 60 -121 43 0 c23 0 105 10 182 21 77 11 176
25 220 30 111 12 604 78 638 85 l27 6 0 144 0 144 -24 0 c-13 0 -90 -9 -171
-20 -81 -11 -149 -20 -151 -20 -2 0 -4 -45 -4 -101 0 -90 -2 -100 -17 -97 -17
3 -18 26 -21 296 -2 224 -5 292 -15 291 -6 -1 -19 -3 -27 -4z"/>
<path d="M3603 3203 c15 -2 37 -2 50 0 12 2 0 4 -28 4 -27 0 -38 -2 -22 -4z"/>
<path d="M3510 3150 c-6 -11 -8 -20 -6 -20 3 0 10 9 16 20 6 11 8 20 6 20 -3
0 -10 -9 -16 -20z"/>
<path d="M3547 3153 c-4 -3 -7 -11 -7 -17 0 -6 5 -5 12 2 6 6 9 14 7 17 -3 3
-9 2 -12 -2z"/>
<path d="M3615 3150 c-3 -5 -1 -10 4 -10 6 0 11 5 11 10 0 6 -2 10 -4 10 -3 0
-8 -4 -11 -10z"/>
<path d="M3492 3080 c0 -19 2 -27 5 -17 2 9 2 25 0 35 -3 9 -5 1 -5 -18z"/>
<path d="M3702 3080 c0 -19 2 -27 5 -17 2 9 2 25 0 35 -3 9 -5 1 -5 -18z"/>
<path d="M3532 3080 c0 -14 2 -19 5 -12 2 6 2 18 0 25 -3 6 -5 1 -5 -13z"/>
<path d="M3540 3031 c0 -6 4 -13 10 -16 6 -3 7 1 4 9 -7 18 -14 21 -14 7z"/>
<path d="M3615 3020 c-3 -5 -1 -10 4 -10 6 0 11 5 11 10 0 6 -2 10 -4 10 -3 0
-8 -4 -11 -10z"/>
<path d="M3710 2998 c-15 -21 -17 -28 -6 -19 16 13 41 51 33 51 -2 0 -14 -15
-27 -32z"/>
<path d="M720 2981 c-107 -15 -209 -35 -226 -44 -44 -22 -91 -80 -103 -124
-17 -58 -14 -406 3 -446 24 -57 57 -78 138 -89 62 -8 103 -6 268 16 107 15
213 32 235 39 52 15 117 81 133 133 10 35 18 174 9 174 -14 0 -329 -41 -350
-46 l-28 -6 2 -96 c2 -83 -1 -97 -15 -100 -14 -3 -16 20 -16 247 0 216 2 251
15 251 12 0 15 -17 15 -89 l0 -89 38 -5 c20 -2 106 5 191 17 l153 21 -4 87
c-9 185 -67 204 -458 149z"/>
<path d="M3570 2985 c14 -17 13 -18 -3 -12 -11 4 -16 3 -12 -4 4 -6 13 -8 21
-5 8 3 14 1 14 -4 0 -22 55 -9 74 18 l19 27 -24 -22 c-31 -28 -39 -29 -75 -1
-24 18 -26 19 -14 3z"/>
<path d="M197 1354 c-4 -11 -20 -40 -35 -65 -24 -38 -37 -47 -86 -62 -32 -10
-56 -20 -54 -22 2 -2 26 -12 53 -23 50 -19 50 -20 60 -78 l10 -58 35 60 c32
54 40 61 95 80 l60 22 -39 16 c-21 9 -42 16 -47 16 -13 0 -22 21 -34 79 -9 43
-13 51 -18 35z"/>
</g>
</svg>
